<?xml version="1.0" standalone="no"?>
<!DOCTYPE svg PUBLIC "-//W3C//DTD SVG 20010904//EN"
 "http://www.w3.org/TR/2001/REC-SVG-20010904/DTD/svg10.dtd">
<svg version="1.0" xmlns="http://www.w3.org/2000/svg"
 width="640.000000pt" height="640.000000pt" viewBox="0 0 640.000000 640.000000"
 preserveAspectRatio="xMidYMid meet">
<metadata>
Created by potrace 1.14, written by Peter Selinger 2001-2017
</metadata>
<g transform="translate(0.000000,640.000000) scale(0.100000,-0.100000)"
fill="#000000" stroke="none">
<path d="M3940 5740 c-136 -27 -291 -75 -298 -92 -2 -5 -10 -8 -18 -8 -17 0
-56 -21 -66 -35 -4 -5 -8 -6 -8 -2 0 9 -168 -104 -214 -143 -61 -53 -196 -194
-196 -205 0 -2 -20 -32 -44 -67 -53 -77 -96 -154 -96 -173 0 -7 -3 -15 -7 -17
-10 -4 -39 -82 -63 -168 -31 -111 -44 -197 -49 -326 -1 -20 -18 -25 -81 -25
-125 1 -369 0 -418 -2 -34 -1 -62 0 -62 3 0 3 -26 4 -57 2 -32 -1 -76 -2 -98
-1 -22 0 -49 0 -60 -1 -11 -1 -24 -1 -30 -1 -5 0 -71 0 -145 0 -74 0 -144 1
-155 1 -11 1 -24 1 -30 1 -65 0 -92 0 -105 0 -8 1 -54 -2 -101 -4 -216 -13
-417 -101 -588 -256 -68 -62 -68 -63 -137 -66 -315 -17 -623 -236 -739 -525
-12 -30 -26 -64 -30 -75 -13 -32 -21 -64 -33 -130 -4 -22 -7 -203 -7 -402 0
-350 1 -362 21 -389 11 -15 31 -36 45 -46 22 -17 102 -31 157 -29 30 2 46 2
85 1 47 -2 102 25 132 64 27 35 45 114 36 154 -4 12 -4 63 -1 113 3 50 2 93
-3 96 -4 2 -5 8 -3 12 5 8 7 40 7 176 0 152 6 197 34 259 22 47 109 156 126
156 2 0 4 -44 4 -98 -1 -223 91 -446 256 -619 44 -46 45 -59 14 -128 -8 -16
-26 -64 -41 -105 -15 -41 -31 -86 -37 -100 -6 -14 -11 -27 -11 -30 -2 -9 -37
-104 -47 -125 -5 -11 -22 -56 -38 -100 -16 -44 -35 -93 -42 -110 -6 -16 -13
-35 -15 -42 -1 -6 -7 -27 -13 -45 -30 -94 -30 -230 0 -340 6 -24 13 -52 15
-63 2 -11 11 -47 19 -80 20 -77 20 -78 40 -155 9 -36 18 -72 20 -80 2 -8 8
-35 15 -60 7 -25 14 -52 15 -60 2 -8 22 -87 45 -175 22 -88 42 -169 45 -179
10 -41 28 -91 39 -104 48 -62 101 -106 153 -127 55 -23 69 -24 283 -24 267 1
299 8 385 93 88 87 121 203 89 314 -4 15 -9 32 -9 37 -1 6 -5 17 -8 25 -3 8
-13 44 -21 80 -8 36 -25 103 -37 150 -11 47 -25 101 -29 120 -21 86 -51 207
-55 222 -3 10 -7 26 -9 35 -2 10 -10 38 -16 63 -29 114 -29 111 12 221 22 57
46 118 54 136 8 17 14 35 14 40 0 4 6 20 14 34 7 14 17 39 21 55 11 37 10 34
24 69 7 17 14 35 15 40 1 6 14 42 29 81 l28 71 112 -24 c61 -13 153 -33 202
-44 50 -11 101 -22 115 -25 14 -3 41 -9 60 -14 19 -5 51 -12 70 -15 19 -3 63
-13 98 -21 34 -7 90 -20 125 -28 34 -8 98 -22 142 -31 44 -9 84 -20 89 -25 5
-5 8 -39 8 -77 -1 -37 -1 -86 -1 -108 0 -22 0 -58 0 -80 -1 -124 0 -168 4
-176 3 -4 1 -10 -5 -14 -7 -4 -7 -12 0 -24 5 -10 7 -20 5 -23 -6 -5 -6 -77 -3
-186 2 -39 0 -72 -4 -72 -4 0 -4 -10 0 -22 7 -21 8 -69 2 -93 -1 -5 -1 -14 0
-20 5 -23 1 -155 -5 -165 -3 -5 -3 -10 2 -10 9 0 8 -142 -1 -165 -3 -8 -2 -15
2 -15 4 0 7 -37 8 -83 0 -67 5 -93 26 -139 31 -66 90 -127 156 -160 45 -22 56
-23 292 -23 229 0 248 1 291 21 104 49 181 160 186 269 1 33 3 60 3 60 1 0 2
26 3 58 1 31 -1 57 -5 57 -4 0 -5 7 -2 15 9 23 10 105 1 105 -5 0 -5 5 -2 10
6 10 10 200 5 225 -1 6 -1 15 0 20 6 24 5 72 -2 93 -4 12 -4 22 0 22 8 0 6 85
-3 108 -2 6 -1 12 3 12 4 0 7 25 7 55 0 30 -4 55 -8 55 -5 0 -5 5 -2 10 6 10
9 83 5 105 -1 6 -1 15 0 20 6 24 5 72 -2 93 -4 12 -4 22 0 22 8 0 6 85 -3 108
-2 6 -1 12 3 12 4 0 7 25 7 55 0 30 -3 55 -7 55 -4 0 -5 7 -2 15 9 22 10 105
2 105 -4 0 -4 10 0 22 8 27 8 81 -1 95 -6 9 30 67 50 82 13 10 73 89 73 97 0
4 6 12 14 18 29 24 158 306 139 306 -3 0 -1 6 4 13 12 14 30 104 39 192 3 33
8 63 10 67 2 3 0 9 -5 12 -5 3 -6 21 -1 40 4 19 5 37 2 40 -4 5 -5 28 -2 200
1 37 -1 70 -4 73 -2 3 -1 15 3 27 5 11 5 30 1 41 -4 11 -4 34 1 52 4 18 3 36
-2 39 -5 3 -7 10 -4 15 4 5 6 38 5 74 -1 36 -1 72 -1 80 0 8 1 26 1 40 0 32 0
42 0 143 0 46 -2 87 -5 92 -3 5 -1 11 4 14 5 3 6 21 1 40 -8 37 2 49 30 35 8
-4 41 -20 73 -34 l58 -26 100 -202 c109 -221 155 -283 235 -319 59 -26 78 -30
146 -29 48 0 89 12 249 76 202 80 239 97 278 130 56 48 111 160 111 226 0 13
-1 42 -1 64 0 22 0 46 0 53 2 29 2 43 1 147 0 61 0 115 0 120 1 6 1 51 0 100
-1 50 -1 96 -1 103 0 6 0 41 1 76 l1 64 57 22 c31 12 71 28 87 35 56 23 200
80 205 81 3 0 16 5 30 12 14 6 90 36 170 67 80 31 154 61 165 65 11 5 34 14
50 20 193 75 215 95 182 164 -13 28 -24 36 -59 44 -24 5 -47 7 -51 4 -12 -6
-117 -8 -117 -2 0 4 -27 4 -125 0 -11 -1 -38 -1 -60 -1 -22 0 -47 0 -55 0 -18
0 -226 0 -255 1 -79 1 -129 -1 -136 -6 -5 -3 -9 -2 -9 3 0 4 -46 7 -102 6 -57
-1 -97 0 -90 3 6 3 12 12 12 20 0 8 4 14 9 14 10 0 73 111 79 139 13 64 10 92
-14 117 l-26 25 -681 -2 c-597 -2 -693 -4 -767 -19z m956 -655 c124 -94 44
-299 -109 -281 -23 3 -45 5 -49 5 -20 2 -78 66 -88 97 -26 76 14 170 85 200
46 20 120 10 161 -21z"/>
</g>
</svg>
